<?xml version="1.0" encoding="UTF-8" standalone="no"?>
<!DOCTYPE svg PUBLIC "-//W3C//DTD SVG 1.1//EN"
 "http://www.w3.org/Graphics/SVG/1.1/DTD/svg11.dtd">
<!-- Generated by graphviz version 2.40.1 (20161225.0304)
 -->
<!-- Title: G Pages: 1 -->
<svg width="720pt" height="503pt"
 viewBox="0.00 0.00 720.00 503.00" xmlns="http://www.w3.org/2000/svg" xmlns:xlink="http://www.w3.org/1999/xlink">
<g id="graph0" class="graph" transform="scale(1 1) rotate(0) translate(4 499)">
<title>G</title>
<polygon fill="#ffffff" stroke="transparent" points="-4,4 -4,-499 716,-499 716,4 -4,4"/>
<!-- A0 -->
<g id="node1" class="node">
<title>A0</title>
<polygon fill="none" stroke="#000000" points="0,-345 0,-377 106,-377 106,-345 0,-345"/>
<text text-anchor="start" x="24.1005" y="-358" font-family="Helvetica,sans-Serif" font-size="10.00" fill="#000000">Parqueadero</text>
<polygon fill="none" stroke="#000000" points="0,-301 0,-345 106,-345 106,-301 0,-301"/>
<text text-anchor="start" x="19.942" y="-326" font-family="Helvetica,sans-Serif" font-size="10.00" fill="#000000">&#45;nombre:String</text>
<text text-anchor="start" x="9.658" y="-314" font-family="Helvetica,sans-Serif" font-size="10.00" fill="#000000">&#45;numeroPuestos:int</text>
</g>
<!-- A1 -->
<g id="node2" class="node">
<title>A1</title>
<polygon fill="none" stroke="#000000" points="298.5,-311 298.5,-355 383.5,-355 383.5,-311 298.5,-311"/>
<text text-anchor="start" x="311.54" y="-336" font-family="Helvetica,sans-Serif" font-size="10.00" fill="#000000">&lt;&lt;abstract&gt;&gt;</text>
<text text-anchor="start" x="321.8285" y="-324" font-family="Helvetica,sans-Serif" font-size="10.00" fill="#000000">Vehiculo</text>
<polygon fill="none" stroke="#000000" points="298.5,-267 298.5,-311 383.5,-311 383.5,-267 298.5,-267"/>
<text text-anchor="start" x="312.941" y="-292" font-family="Helvetica,sans-Serif" font-size="10.00" fill="#000000">&#45;placa:String</text>
<text text-anchor="start" x="308.497" y="-280" font-family="Helvetica,sans-Serif" font-size="10.00" fill="#000000">&#45;modelo:String</text>
</g>
<!-- A0&#45;&gt;A1 -->
<g id="edge2" class="edge">
<title>A0&#45;&gt;A1</title>
<path fill="none" stroke="#000000" d="M118.1276,-332.6571C169.3001,-327.6734 239.6713,-320.8198 287.447,-316.1669"/>
<polygon fill="none" stroke="#000000" points="118.0105,-332.6685 112.4265,-337.2313 106.067,-333.8317 111.651,-329.2689 118.0105,-332.6685"/>
<polygon fill="#000000" stroke="#000000" points="297.5821,-315.1798 288.0655,-320.6281 292.6057,-315.6645 287.6292,-316.1492 287.6292,-316.1492 287.6292,-316.1492 292.6057,-315.6645 287.193,-311.6704 297.5821,-315.1798 297.5821,-315.1798"/>
<text text-anchor="middle" x="280.3606" y="-322.3494" font-family="Helvetica,sans-Serif" font-size="10.00" fill="#000000">*</text>
<text text-anchor="middle" x="123.2885" y="-320.6622" font-family="Helvetica,sans-Serif" font-size="10.00" fill="#000000">1</text>
</g>
<!-- A2 -->
<g id="node3" class="node">
<title>A2</title>
<polygon fill="none" stroke="#000000" points="156,-279 156,-311 234,-311 234,-279 156,-279"/>
<text text-anchor="start" x="179.4375" y="-292" font-family="Helvetica,sans-Serif" font-size="10.00" fill="#000000">Puesto</text>
<polygon fill="none" stroke="#000000" points="156,-235 156,-279 234,-279 234,-235 156,-235"/>
<text text-anchor="start" x="166.661" y="-260" font-family="Helvetica,sans-Serif" font-size="10.00" fill="#000000">&#45;posicionI:Int</text>
<text text-anchor="start" x="165.5505" y="-248" font-family="Helvetica,sans-Serif" font-size="10.00" fill="#000000">&#45;posicionJ:Int</text>
</g>
<!-- A0&#45;&gt;A2 -->
<g id="edge1" class="edge">
<title>A0&#45;&gt;A2</title>
<path fill="none" stroke="#000000" d="M117.1748,-309.1723C130.2802,-303.081 143.6987,-296.8443 155.6219,-291.3025"/>
<polygon fill="none" stroke="#000000" points="117.1616,-309.1784 113.4065,-315.3347 106.2796,-314.2363 110.0346,-308.08 117.1616,-309.1784"/>
<text text-anchor="middle" x="142.747" y="-303.6073" font-family="Helvetica,sans-Serif" font-size="10.00" fill="#000000">*</text>
<text text-anchor="middle" x="119.1544" y="-295.9314" font-family="Helvetica,sans-Serif" font-size="10.00" fill="#000000">1</text>
</g>
<!-- A4 -->
<g id="node5" class="node">
<title>A4</title>
<polygon fill="none" stroke="#000000" points="447.5,-463 447.5,-495 594.5,-495 594.5,-463 447.5,-463"/>
<text text-anchor="start" x="502.3885" y="-476" font-family="Helvetica,sans-Serif" font-size="10.00" fill="#000000">Registro</text>
<polygon fill="none" stroke="#000000" points="447.5,-419 447.5,-463 594.5,-463 594.5,-419 447.5,-419"/>
<text text-anchor="start" x="457.0965" y="-444" font-family="Helvetica,sans-Serif" font-size="10.00" fill="#000000">fechaIngreso:LocalDateTime</text>
<text text-anchor="start" x="459.8765" y="-432" font-family="Helvetica,sans-Serif" font-size="10.00" fill="#000000">fechaSalida:LocalDateTime</text>
</g>
<!-- A0&#45;&gt;A4 -->
<g id="edge3" class="edge">
<title>A0&#45;&gt;A4</title>
<path fill="none" stroke="#000000" d="M117.8919,-355.3791C201.0974,-376.3807 345.5161,-412.8329 436.8833,-435.8946"/>
<polygon fill="none" stroke="#000000" points="117.8081,-355.3581 111.0116,-357.768 106.173,-352.4212 112.9695,-350.0113 117.8081,-355.3581"/>
<polygon fill="#000000" stroke="#000000" points="446.654,-438.3608 435.8568,-440.2766 441.8061,-437.1371 436.9581,-435.9134 436.9581,-435.9134 436.9581,-435.9134 441.8061,-437.1371 438.0594,-431.5503 446.654,-438.3608 446.654,-438.3608"/>
<text text-anchor="middle" x="427.0105" y="-439.1201" font-family="Helvetica,sans-Serif" font-size="10.00" fill="#000000">*</text>
<text text-anchor="middle" x="125.8166" y="-345.6619" font-family="Helvetica,sans-Serif" font-size="10.00" fill="#000000">1</text>
</g>
<!-- A1&#45;&gt;A4 -->
<g id="edge12" class="edge">
<title>A1&#45;&gt;A4</title>
<path fill="none" stroke="#000000" d="M390.4787,-360.9388C407.7889,-377.278 427.7017,-395.0558 447,-410 450.8321,-412.9675 454.8547,-415.9276 458.9601,-418.8356"/>
<polygon fill="#000000" stroke="#000000" points="383.2287,-354.0368 393.5743,-357.6727 386.8501,-357.4844 390.4715,-360.9319 390.4715,-360.9319 390.4715,-360.9319 386.8501,-357.4844 387.3687,-364.1912 383.2287,-354.0368 383.2287,-354.0368"/>
<text text-anchor="middle" x="439.2897" y="-412.22" font-family="Helvetica,sans-Serif" font-size="10.00" fill="#000000">*</text>
<text text-anchor="middle" x="402.185" y="-357.4132" font-family="Helvetica,sans-Serif" font-size="10.00" fill="#000000">1</text>
</g>
<!-- A5 -->
<g id="node6" class="node">
<title>A5</title>
<polygon fill="none" stroke="#000000" points="454.5,-369 454.5,-401 587.5,-401 587.5,-369 454.5,-369"/>
<text text-anchor="start" x="509.887" y="-382" font-family="Helvetica,sans-Serif" font-size="10.00" fill="#000000">Moto</text>
<polygon fill="none" stroke="#000000" points="454.5,-313 454.5,-369 587.5,-369 587.5,-313 454.5,-313"/>
<text text-anchor="start" x="464.325" y="-350" font-family="Helvetica,sans-Serif" font-size="10.00" fill="#000000">&#45;velocidadMaxima:double</text>
<text text-anchor="start" x="477.104" y="-338" font-family="Helvetica,sans-Serif" font-size="10.00" fill="#000000">tarifaClasica:double</text>
<text text-anchor="start" x="476.2705" y="-326" font-family="Helvetica,sans-Serif" font-size="10.00" fill="#000000"> tarifaHibrida:double</text>
</g>
<!-- A1&#45;&gt;A5 -->
<g id="edge4" class="edge">
<title>A1&#45;&gt;A5</title>
<path fill="none" stroke="#000000" d="M392.853,-324.3791C411.9175,-329.2511 433.7313,-334.8258 453.8683,-339.9719"/>
<polygon fill="none" stroke="#000000" points="393.7127,-320.9864 383.1575,-321.9014 391.9795,-327.7684 393.7127,-320.9864"/>
</g>
<!-- A7 -->
<g id="node8" class="node">
<title>A7</title>
<polygon fill="none" stroke="#000000" points="483.5,-263 483.5,-295 558.5,-295 558.5,-263 483.5,-263"/>
<text text-anchor="start" x="508.5025" y="-276" font-family="Helvetica,sans-Serif" font-size="10.00" fill="#000000">Carro</text>
<polygon fill="none" stroke="#000000" points="483.5,-231 483.5,-263 558.5,-263 558.5,-231 483.5,-231"/>
<text text-anchor="start" x="493.4915" y="-244" font-family="Helvetica,sans-Serif" font-size="10.00" fill="#000000">tarifa:double</text>
</g>
<!-- A1&#45;&gt;A7 -->
<g id="edge13" class="edge">
<title>A1&#45;&gt;A7</title>
<path fill="none" stroke="#000000" d="M393.0379,-296.9899C421.7725,-289.3273 456.7087,-280.011 482.7335,-273.0711"/>
<polygon fill="none" stroke="#000000" points="391.918,-293.6661 383.1575,-299.6247 393.7217,-300.4298 391.918,-293.6661"/>
</g>
<!-- A8 -->
<g id="node9" class="node">
<title>A8</title>
<polygon fill="none" stroke="#000000" points="558.8398,-213 482.1602,-213 482.1602,-177 558.8398,-177 558.8398,-213"/>
<text text-anchor="middle" x="520.5" y="-192" font-family="Helvetica,sans-Serif" font-size="10.00" fill="#000000">Propietario</text>
</g>
<!-- A1&#45;&gt;A8 -->
<g id="edge6" class="edge">
<title>A1&#45;&gt;A8</title>
<path fill="none" stroke="#000000" d="M383.026,-269.6656C401.5779,-253.229 424.2607,-235.1433 447,-222 454.9518,-217.4039 463.8258,-213.3531 472.5814,-209.88"/>
<polygon fill="#000000" stroke="#000000" points="481.9864,-206.3396 474.2129,-214.0742 477.3069,-208.1012 472.6275,-209.8627 472.6275,-209.8627 472.6275,-209.8627 477.3069,-208.1012 471.0421,-205.6513 481.9864,-206.3396 481.9864,-206.3396"/>
<text text-anchor="middle" x="468.0002" y="-217.636" font-family="Helvetica,sans-Serif" font-size="10.00" fill="#000000">1</text>
<text text-anchor="middle" x="391.103" y="-248.3691" font-family="Helvetica,sans-Serif" font-size="10.00" fill="#000000">1</text>
</g>
<!-- A2&#45;&gt;A1 -->
<g id="edge8" class="edge">
<title>A2&#45;&gt;A1</title>
<path fill="none" stroke="#000000" d="M234.3744,-283.2833C250.7667,-287.5645 270.0454,-292.5995 287.6421,-297.1952"/>
<polygon fill="#000000" stroke="#000000" points="297.7739,-299.8413 286.9613,-301.6683 292.9362,-298.5778 288.0985,-297.3143 288.0985,-297.3143 288.0985,-297.3143 292.9362,-298.5778 289.2356,-292.9603 297.7739,-299.8413 297.7739,-299.8413"/>
<text text-anchor="middle" x="278.1002" y="-300.439" font-family="Helvetica,sans-Serif" font-size="10.00" fill="#000000">1</text>
<text text-anchor="middle" x="254.0481" y="-276.6856" font-family="Helvetica,sans-Serif" font-size="10.00" fill="#000000">1</text>
</g>
<!-- A3 -->
<g id="node4" class="node">
<title>A3</title>
<polygon fill="none" stroke="#000000" points="305.5,-44 305.5,-88 375.5,-88 375.5,-44 305.5,-44"/>
<text text-anchor="start" x="316.319" y="-69" font-family="Helvetica,sans-Serif" font-size="10.00" fill="#000000">&lt;&lt;enum&gt;&gt;</text>
<text text-anchor="start" x="324.9375" y="-57" font-family="Helvetica,sans-Serif" font-size="10.00" fill="#000000">Estado</text>
<polygon fill="none" stroke="#000000" points="305.5,0 305.5,-44 375.5,-44 375.5,0 305.5,0"/>
<text text-anchor="start" x="326.0525" y="-25" font-family="Helvetica,sans-Serif" font-size="10.00" fill="#000000">LIBRE</text>
<text text-anchor="start" x="315.2235" y="-13" font-family="Helvetica,sans-Serif" font-size="10.00" fill="#000000">OCUPADO</text>
</g>
<!-- A2&#45;&gt;A3 -->
<g id="edge7" class="edge">
<title>A2&#45;&gt;A3</title>
<path fill="none" stroke="#000000" d="M209.7397,-234.7614C225.1041,-197.5563 251.4695,-140.4404 284,-97 288.1706,-91.4306 292.963,-85.9478 297.9556,-80.7439"/>
<polygon fill="#000000" stroke="#000000" points="305.3643,-73.3417 301.4707,-83.5931 301.8272,-76.8757 298.2901,-80.4097 298.2901,-80.4097 298.2901,-80.4097 301.8272,-76.8757 295.1095,-77.2263 305.3643,-73.3417 305.3643,-73.3417"/>
<text text-anchor="middle" x="298.5156" y="-89.1325" font-family="Helvetica,sans-Serif" font-size="10.00" fill="#000000">1</text>
<text text-anchor="middle" x="208.9802" y="-211.7759" font-family="Helvetica,sans-Serif" font-size="10.00" fill="#000000">1</text>
</g>
<!-- A6 -->
<g id="node7" class="node">
<title>A6</title>
<polygon fill="none" stroke="#000000" points="644,-357 644,-401 712,-401 712,-357 644,-357"/>
<text text-anchor="start" x="653.819" y="-382" font-family="Helvetica,sans-Serif" font-size="10.00" fill="#000000">&lt;&lt;enum&gt;&gt;</text>
<text text-anchor="start" x="657.164" y="-370" font-family="Helvetica,sans-Serif" font-size="10.00" fill="#000000">TipoMoto</text>
<polygon fill="none" stroke="#000000" points="644,-313 644,-357 712,-357 712,-313 644,-313"/>
<text text-anchor="start" x="656.6085" y="-338" font-family="Helvetica,sans-Serif" font-size="10.00" fill="#000000">CLASICA</text>
<text text-anchor="start" x="657.7235" y="-326" font-family="Helvetica,sans-Serif" font-size="10.00" fill="#000000">HIBRIDA</text>
</g>
<!-- A5&#45;&gt;A6 -->
<g id="edge5" class="edge">
<title>A5&#45;&gt;A6</title>
<path fill="none" stroke="#000000" d="M587.2942,-357C602.9463,-357 619.2435,-357 633.6344,-357"/>
<polygon fill="#000000" stroke="#000000" points="643.7399,-357 633.7399,-361.5001 638.7399,-357 633.7399,-357.0001 633.7399,-357.0001 633.7399,-357.0001 638.7399,-357 633.7399,-352.5001 643.7399,-357 643.7399,-357"/>
<text text-anchor="middle" x="625.6137" y="-362.4524" font-family="Helvetica,sans-Serif" font-size="10.00" fill="#000000">1</text>
<text text-anchor="middle" x="605.4203" y="-345.5476" font-family="Helvetica,sans-Serif" font-size="10.00" fill="#000000">1</text>
</g>
<!-- A9 -->
<g id="node10" class="node">
<title>A9</title>
<polygon fill="none" stroke="#000000" points="559.501,-159 481.499,-159 481.499,-123 559.501,-123 559.501,-159"/>
<text text-anchor="middle" x="520.5" y="-138" font-family="Helvetica,sans-Serif" font-size="10.00" fill="#000000">Comprador</text>
</g>
<!-- A10 -->
<g id="node11" class="node">
<title>A10</title>
<polygon fill="none" stroke="#000000" points="565.1686,-105 475.8314,-105 475.8314,-69 565.1686,-69 565.1686,-105"/>
<text text-anchor="middle" x="520.5" y="-84" font-family="Helvetica,sans-Serif" font-size="10.00" fill="#000000">Administrador</text>
</g>
<!-- A11 -->
<g id="node12" class="node">
<title>A11</title>
<polygon fill="none" stroke="#000000" points="284.5,-186 284.5,-230 397.5,-230 397.5,-186 284.5,-186"/>
<text text-anchor="start" x="311.54" y="-211" font-family="Helvetica,sans-Serif" font-size="10.00" fill="#000000">&lt;&lt;abstract&gt;&gt;</text>
<text text-anchor="start" x="322.383" y="-199" font-family="Helvetica,sans-Serif" font-size="10.00" fill="#000000">Persona</text>
<polygon fill="none" stroke="#000000" points="284.5,-106 284.5,-186 397.5,-186 397.5,-106 284.5,-106"/>
<text text-anchor="start" x="305.442" y="-167" font-family="Helvetica,sans-Serif" font-size="10.00" fill="#000000">&#45;nombres:String</text>
<text text-anchor="start" x="305.163" y="-155" font-family="Helvetica,sans-Serif" font-size="10.00" fill="#000000">&#45;apellidos:String</text>
<text text-anchor="start" x="321.5495" y="-143" font-family="Helvetica,sans-Serif" font-size="10.00" fill="#000000">&#45;edad:int</text>
<text text-anchor="start" x="310.167" y="-131" font-family="Helvetica,sans-Serif" font-size="10.00" fill="#000000">&#45;celular:String</text>
<text text-anchor="start" x="294.3305" y="-119" font-family="Helvetica,sans-Serif" font-size="10.00" fill="#000000">&#45;identificación:String</text>
</g>
<!-- A11&#45;&gt;A8 -->
<g id="edge9" class="edge">
<title>A11&#45;&gt;A8</title>
<path fill="none" stroke="#000000" d="M407.6703,-178.0755C432.7936,-181.844 460.4582,-185.9937 482.1063,-189.2409"/>
<polygon fill="none" stroke="#000000" points="407.8617,-174.5652 397.4531,-176.543 406.8233,-181.4877 407.8617,-174.5652"/>
</g>
<!-- A11&#45;&gt;A9 -->
<g id="edge10" class="edge">
<title>A11&#45;&gt;A9</title>
<path fill="none" stroke="#000000" d="M407.5541,-157.9419C432.3884,-154.2167 459.7203,-150.117 481.2762,-146.8836"/>
<polygon fill="none" stroke="#000000" points="406.8233,-154.5123 397.4531,-159.457 407.8617,-161.4348 406.8233,-154.5123"/>
</g>
<!-- A11&#45;&gt;A10 -->
<g id="edge11" class="edge">
<title>A11&#45;&gt;A10</title>
<path fill="none" stroke="#000000" d="M406.2352,-133.1587C419.5911,-126.5091 433.6416,-119.8164 447,-114 456.0987,-110.0383 465.9848,-106.1406 475.4695,-102.5924"/>
<polygon fill="none" stroke="#000000" points="404.4784,-130.1244 397.1168,-137.744 407.6233,-136.3782 404.4784,-130.1244"/>
</g>
</g>
</svg>
