<?xml version="1.0" encoding="UTF-8" standalone="no"?>
<!DOCTYPE svg PUBLIC "-//W3C//DTD SVG 1.1//EN"
 "http://www.w3.org/Graphics/SVG/1.1/DTD/svg11.dtd">
<!-- Generated by graphviz version 2.40.1 (20161225.0304)
 -->
<!-- Title: G Pages: 1 -->
<svg width="1494pt" height="837pt"
 viewBox="0.00 0.00 1494.00 837.00" xmlns="http://www.w3.org/2000/svg" xmlns:xlink="http://www.w3.org/1999/xlink">
<g id="graph0" class="graph" transform="scale(1 1) rotate(0) translate(4 833)">
<title>G</title>
<polygon fill="#ffffff" stroke="transparent" points="-4,4 -4,-833 1490,-833 1490,4 -4,4"/>
<!-- A0 -->
<g id="node1" class="node">
<title>A0</title>
<polygon fill="none" stroke="#000000" points="0,-659 0,-691 360,-691 360,-659 0,-659"/>
<text text-anchor="start" x="151.1005" y="-672" font-family="Helvetica,sans-Serif" font-size="10.00" fill="#000000">Parqueadero</text>
<polygon fill="none" stroke="#000000" points="0,-615 0,-659 360,-659 360,-615 0,-615"/>
<text text-anchor="start" x="146.942" y="-640" font-family="Helvetica,sans-Serif" font-size="10.00" fill="#000000">&#45;nombre:String</text>
<text text-anchor="start" x="136.658" y="-628" font-family="Helvetica,sans-Serif" font-size="10.00" fill="#000000">&#45;numeroPuestos:int</text>
<polygon fill="none" stroke="#000000" points="0,-415 0,-615 360,-615 360,-415 0,-415"/>
<text text-anchor="start" x="73.1755" y="-596" font-family="Helvetica,sans-Serif" font-size="10.00" fill="#000000">+Constructor(nombre:String,numeroPuestos:Int)</text>
<text text-anchor="start" x="134.5795" y="-584" font-family="Helvetica,sans-Serif" font-size="10.00" fill="#000000">+getNombre():String</text>
<text text-anchor="start" x="124.2955" y="-572" font-family="Helvetica,sans-Serif" font-size="10.00" fill="#000000">+getNumeroPuestos():int</text>
<text text-anchor="start" x="107.3435" y="-560" font-family="Helvetica,sans-Serif" font-size="10.00" fill="#000000">+addVehiculo(Vehiculo:vehiculo)</text>
<text text-anchor="start" x="102.3435" y="-548" font-family="Helvetica,sans-Serif" font-size="10.00" fill="#000000">+crearPuestos(Int numeroPuestos)</text>
<text text-anchor="start" x="20.3755" y="-536" font-family="Helvetica,sans-Serif" font-size="10.00" fill="#000000">+addVehiculoPuestoDado(Vehiculo vehiculo, int posicionI, int posicionJ)</text>
<text text-anchor="start" x="9.542" y="-524" font-family="Helvetica,sans-Serif" font-size="10.00" fill="#000000">+removeVehiculoPuestoDado(posicionI:int, posicionJ:int, fechaSalida:Fecha)</text>
<text text-anchor="start" x="41.5025" y="-512" font-family="Helvetica,sans-Serif" font-size="10.00" fill="#000000">+verificarPuestoDisponible(int posicionI, int posicionJ):boolean</text>
<text text-anchor="start" x="18.1495" y="-500" font-family="Helvetica,sans-Serif" font-size="10.00" fill="#000000">+actualizarEstadoPuesto(posicionI:int,posicionJ:int,estadoNuevo:Estado)</text>
<text text-anchor="start" x="19.8335" y="-488" font-family="Helvetica,sans-Serif" font-size="10.00" fill="#000000">+identificarPropietarioPuestoDado(posicionI:int,posicionJ:int):Propietario</text>
<text text-anchor="start" x="97.906" y="-476" font-family="Helvetica,sans-Serif" font-size="10.00" fill="#000000">+getRegistros():Collection&lt;Registro&gt;</text>
<text text-anchor="start" x="103.4435" y="-464" font-family="Helvetica,sans-Serif" font-size="10.00" fill="#000000">+getPuestos():Hashtable&lt;Puesto&gt;</text>
<text text-anchor="start" x="96.786" y="-452" font-family="Helvetica,sans-Serif" font-size="10.00" fill="#000000">+getVehiculos():Collection&lt;Vehiculo&gt;</text>
<text text-anchor="start" x="91.227" y="-440" font-family="Helvetica,sans-Serif" font-size="10.00" fill="#000000">+generarReporteMensual(fecha):double</text>
<text text-anchor="start" x="68.4525" y="-428" font-family="Helvetica,sans-Serif" font-size="10.00" fill="#000000">+generarReporteDiario(fecha):Collection&lt;Double&gt;</text>
</g>
<!-- A1 -->
<g id="node2" class="node">
<title>A1</title>
<polygon fill="none" stroke="#000000" points="764.5,-517 764.5,-561 1066.5,-561 1066.5,-517 764.5,-517"/>
<text text-anchor="start" x="886.04" y="-542" font-family="Helvetica,sans-Serif" font-size="10.00" fill="#000000">&lt;&lt;abstract&gt;&gt;</text>
<text text-anchor="start" x="896.3285" y="-530" font-family="Helvetica,sans-Serif" font-size="10.00" fill="#000000">Vehiculo</text>
<polygon fill="none" stroke="#000000" points="764.5,-473 764.5,-517 1066.5,-517 1066.5,-473 764.5,-473"/>
<text text-anchor="start" x="887.441" y="-498" font-family="Helvetica,sans-Serif" font-size="10.00" fill="#000000">&#45;placa:String</text>
<text text-anchor="start" x="882.997" y="-486" font-family="Helvetica,sans-Serif" font-size="10.00" fill="#000000">&#45;modelo:String</text>
<polygon fill="none" stroke="#000000" points="764.5,-381 764.5,-473 1066.5,-473 1066.5,-381 764.5,-381"/>
<text text-anchor="start" x="774.2305" y="-454" font-family="Helvetica,sans-Serif" font-size="10.00" fill="#000000">+Constructor(placa:String,modelo:String,propietario:Propietario)</text>
<text text-anchor="start" x="875.3535" y="-442" font-family="Helvetica,sans-Serif" font-size="10.00" fill="#000000">+getPlaca():String</text>
<text text-anchor="start" x="871.4645" y="-430" font-family="Helvetica,sans-Serif" font-size="10.00" fill="#000000">+getModelo():String</text>
<text text-anchor="start" x="852.5745" y="-418" font-family="Helvetica,sans-Serif" font-size="10.00" fill="#000000">+getPropietario():Propietario</text>
<text text-anchor="start" x="853.958" y="-406" font-family="Helvetica,sans-Serif" font-size="10.00" fill="#000000">+abstract double getTarifa()</text>
<text text-anchor="start" x="832.5675" y="-394" font-family="Helvetica,sans-Serif" font-size="10.00" fill="#000000">+abstract void setTarifa(double tarifa)</text>
</g>
<!-- A0&#45;&gt;A1 -->
<g id="edge2" class="edge">
<title>A0&#45;&gt;A1</title>
<path fill="none" stroke="#000000" d="M372.2096,-555.178C463.7326,-553.7738 574.467,-548.5239 673,-534 699.5411,-530.0878 727.369,-524.404 754.3231,-518.0292"/>
<polygon fill="none" stroke="#000000" points="371.9999,-555.1807 366.055,-559.2622 360.001,-555.3443 365.9459,-551.2629 371.9999,-555.1807"/>
<polygon fill="#000000" stroke="#000000" points="764.2101,-515.6513 755.5396,-522.365 759.3487,-516.8206 754.4873,-517.9898 754.4873,-517.9898 754.4873,-517.9898 759.3487,-516.8206 753.435,-513.6145 764.2101,-515.6513 764.2101,-515.6513"/>
<text text-anchor="middle" x="748.5629" y="-525.1079" font-family="Helvetica,sans-Serif" font-size="10.00" fill="#000000">*</text>
<text text-anchor="middle" x="378.0103" y="-543.6458" font-family="Helvetica,sans-Serif" font-size="10.00" fill="#000000">1</text>
</g>
<!-- A2 -->
<g id="node3" class="node">
<title>A2</title>
<polygon fill="none" stroke="#000000" points="410.5,-493 410.5,-525 673.5,-525 673.5,-493 410.5,-493"/>
<text text-anchor="start" x="526.4375" y="-506" font-family="Helvetica,sans-Serif" font-size="10.00" fill="#000000">Puesto</text>
<polygon fill="none" stroke="#000000" points="410.5,-437 410.5,-493 673.5,-493 673.5,-437 410.5,-437"/>
<text text-anchor="start" x="513.661" y="-474" font-family="Helvetica,sans-Serif" font-size="10.00" fill="#000000">&#45;posicionI:Int</text>
<text text-anchor="start" x="512.5505" y="-462" font-family="Helvetica,sans-Serif" font-size="10.00" fill="#000000">&#45;posicionJ:Int</text>
<text text-anchor="start" x="508.376" y="-450" font-family="Helvetica,sans-Serif" font-size="10.00" fill="#000000">&#45;estado:Estado</text>
<polygon fill="none" stroke="#000000" points="410.5,-333 410.5,-437 673.5,-437 673.5,-333 410.5,-333"/>
<text text-anchor="start" x="420.163" y="-418" font-family="Helvetica,sans-Serif" font-size="10.00" fill="#000000">+Constructor(posicionI:Int,posicionJ:Int,Estado:Estado)</text>
<text text-anchor="start" x="501.5735" y="-406" font-family="Helvetica,sans-Serif" font-size="10.00" fill="#000000">+getPosicionI():Int</text>
<text text-anchor="start" x="500.463" y="-394" font-family="Helvetica,sans-Serif" font-size="10.00" fill="#000000">+getPosicionJ():Int</text>
<text text-anchor="start" x="497.678" y="-382" font-family="Helvetica,sans-Serif" font-size="10.00" fill="#000000">+getEstado()Estado</text>
<text text-anchor="start" x="500.877" y="-370" font-family="Helvetica,sans-Serif" font-size="10.00" fill="#000000">setEstado(Estado)</text>
<text text-anchor="start" x="489.0705" y="-358" font-family="Helvetica,sans-Serif" font-size="10.00" fill="#000000">+getVehiculo():Vehiculo</text>
<text text-anchor="start" x="490.7395" y="-346" font-family="Helvetica,sans-Serif" font-size="10.00" fill="#000000">+setVehiculo(Vehiculo)</text>
</g>
<!-- A0&#45;&gt;A2 -->
<g id="edge1" class="edge">
<title>A0&#45;&gt;A2</title>
<path fill="none" stroke="#000000" d="M371.5744,-487.2871C384.4803,-482.8601 397.3124,-478.4585 409.8062,-474.173"/>
<polygon fill="none" stroke="#000000" points="371.5713,-487.2881 367.1937,-493.0185 360.2205,-491.1816 364.598,-485.4513 371.5713,-487.2881"/>
<text text-anchor="middle" x="395.4031" y="-485.0493" font-family="Helvetica,sans-Serif" font-size="10.00" fill="#000000">*</text>
<text text-anchor="middle" x="374.6236" y="-474.3054" font-family="Helvetica,sans-Serif" font-size="10.00" fill="#000000">1</text>
</g>
<!-- A4 -->
<g id="node5" class="node">
<title>A4</title>
<polygon fill="none" stroke="#000000" points="1158,-797 1158,-829 1368,-829 1368,-797 1158,-797"/>
<text text-anchor="start" x="1244.3885" y="-810" font-family="Helvetica,sans-Serif" font-size="10.00" fill="#000000">Registro</text>
<polygon fill="none" stroke="#000000" points="1158,-753 1158,-797 1368,-797 1368,-753 1158,-753"/>
<text text-anchor="start" x="1199.0965" y="-778" font-family="Helvetica,sans-Serif" font-size="10.00" fill="#000000">fechaIngreso:LocalDateTime</text>
<text text-anchor="start" x="1201.8765" y="-766" font-family="Helvetica,sans-Serif" font-size="10.00" fill="#000000">fechaSalida:LocalDateTime</text>
<polygon fill="none" stroke="#000000" points="1158,-625 1158,-753 1368,-753 1368,-625 1158,-625"/>
<text text-anchor="start" x="1167.8425" y="-734" font-family="Helvetica,sans-Serif" font-size="10.00" fill="#000000">+Constructor(fechaEntrada:LocalDateTime</text>
<text text-anchor="start" x="1201.8765" y="-722" font-family="Helvetica,sans-Serif" font-size="10.00" fill="#000000">fechaSalida:LocalDateTime</text>
<text text-anchor="start" x="1219.9375" y="-710" font-family="Helvetica,sans-Serif" font-size="10.00" fill="#000000">Vehiculo:vechiculo)</text>
<text text-anchor="start" x="1215.9145" y="-698" font-family="Helvetica,sans-Serif" font-size="10.00" fill="#000000">+calcularTiempo():Int</text>
<text text-anchor="start" x="1210.356" y="-686" font-family="Helvetica,sans-Serif" font-size="10.00" fill="#000000">+calcularTarifa():double</text>
<text text-anchor="start" x="1193.528" y="-674" font-family="Helvetica,sans-Serif" font-size="10.00" fill="#000000">getFechaEntrada:fechaEntrada</text>
<text text-anchor="start" x="1200.757" y="-662" font-family="Helvetica,sans-Serif" font-size="10.00" fill="#000000">getFechaSalida:fechaSalida</text>
<text text-anchor="start" x="1215.489" y="-650" font-family="Helvetica,sans-Serif" font-size="10.00" fill="#000000">getVehiculo:vehiculo)</text>
<text text-anchor="start" x="1208.4045" y="-638" font-family="Helvetica,sans-Serif" font-size="10.00" fill="#000000">+setFechaSalida(Fecha)</text>
</g>
<!-- A0&#45;&gt;A4 -->
<g id="edge3" class="edge">
<title>A0&#45;&gt;A4</title>
<path fill="none" stroke="#000000" d="M372.2082,-583.8811C597.1899,-620.0277 962.5031,-678.7207 1147.6151,-708.4617"/>
<polygon fill="none" stroke="#000000" points="371.8992,-583.8315 365.3406,-586.8291 360.0511,-581.9279 366.6097,-578.9304 371.8992,-583.8315"/>
<polygon fill="#000000" stroke="#000000" points="1157.6476,-710.0736 1147.0604,-712.9302 1152.7109,-709.2804 1147.7742,-708.4872 1147.7742,-708.4872 1147.7742,-708.4872 1152.7109,-709.2804 1148.4881,-704.0442 1157.6476,-710.0736 1157.6476,-710.0736"/>
<text text-anchor="middle" x="1138.4102" y="-712.5436" font-family="Helvetica,sans-Serif" font-size="10.00" fill="#000000">*</text>
<text text-anchor="middle" x="379.2886" y="-573.4579" font-family="Helvetica,sans-Serif" font-size="10.00" fill="#000000">1</text>
</g>
<!-- A1&#45;&gt;A4 -->
<g id="edge12" class="edge">
<title>A1&#45;&gt;A4</title>
<path fill="none" stroke="#000000" d="M1046.3124,-567.3683C1083.101,-594.4701 1122.6294,-623.5903 1157.7217,-649.4425"/>
<polygon fill="#000000" stroke="#000000" points="1038.0155,-561.256 1048.7357,-563.5642 1042.0411,-564.2216 1046.0667,-567.1873 1046.0667,-567.1873 1046.0667,-567.1873 1042.0411,-564.2216 1043.3976,-570.8103 1038.0155,-561.256 1038.0155,-561.256"/>
<text text-anchor="middle" x="1138.1149" y="-642.4966" font-family="Helvetica,sans-Serif" font-size="10.00" fill="#000000">*</text>
<text text-anchor="middle" x="1057.6224" y="-562.2019" font-family="Helvetica,sans-Serif" font-size="10.00" fill="#000000">1</text>
</g>
<!-- A5 -->
<g id="node6" class="node">
<title>A5</title>
<polygon fill="none" stroke="#000000" points="1167,-575 1167,-607 1360,-607 1360,-575 1167,-575"/>
<text text-anchor="start" x="1252.387" y="-588" font-family="Helvetica,sans-Serif" font-size="10.00" fill="#000000">Moto</text>
<polygon fill="none" stroke="#000000" points="1167,-507 1167,-575 1360,-575 1360,-507 1167,-507"/>
<text text-anchor="start" x="1206.825" y="-556" font-family="Helvetica,sans-Serif" font-size="10.00" fill="#000000">&#45;velocidadMaxima:double</text>
<text text-anchor="start" x="1220.439" y="-544" font-family="Helvetica,sans-Serif" font-size="10.00" fill="#000000">&#45;tipoMoto:TipoMoto</text>
<text text-anchor="start" x="1204.882" y="-532" font-family="Helvetica,sans-Serif" font-size="10.00" fill="#000000">&#45;static tarifaClasica:double</text>
<text text-anchor="start" x="1205.438" y="-520" font-family="Helvetica,sans-Serif" font-size="10.00" fill="#000000">&#45;static tarifaHibrida:double</text>
<polygon fill="none" stroke="#000000" points="1167,-415 1167,-507 1360,-507 1360,-415 1167,-415"/>
<text text-anchor="start" x="1176.6805" y="-488" font-family="Helvetica,sans-Serif" font-size="10.00" fill="#000000">+Constructor(velocidadMaxima: double</text>
<text text-anchor="start" x="1217.66" y="-476" font-family="Helvetica,sans-Serif" font-size="10.00" fill="#000000"> tipoMoto: TipoMoto)</text>
<text text-anchor="start" x="1191.679" y="-464" font-family="Helvetica,sans-Serif" font-size="10.00" fill="#000000">+ getVelocidadMaxima():double </text>
<text text-anchor="start" x="1203.073" y="-452" font-family="Helvetica,sans-Serif" font-size="10.00" fill="#000000"> + getTipoMoto(): TipoMoto</text>
<text text-anchor="start" x="1219.74" y="-440" font-family="Helvetica,sans-Serif" font-size="10.00" fill="#000000"> +getTarifa():double</text>
<text text-anchor="start" x="1210.297" y="-428" font-family="Helvetica,sans-Serif" font-size="10.00" fill="#000000">+setTarifa(double tarifa)</text>
</g>
<!-- A1&#45;&gt;A5 -->
<g id="edge4" class="edge">
<title>A1&#45;&gt;A5</title>
<path fill="none" stroke="#000000" d="M1076.6037,-489.5443C1107.3178,-493.0797 1138.5618,-496.6762 1166.4692,-499.8885"/>
<polygon fill="none" stroke="#000000" points="1076.9897,-486.0657 1066.6551,-488.3991 1076.1892,-493.0198 1076.9897,-486.0657"/>
</g>
<!-- A7 -->
<g id="node8" class="node">
<title>A7</title>
<polygon fill="none" stroke="#000000" points="1200,-365 1200,-397 1326,-397 1326,-365 1200,-365"/>
<text text-anchor="start" x="1250.5025" y="-378" font-family="Helvetica,sans-Serif" font-size="10.00" fill="#000000">Carro</text>
<polygon fill="none" stroke="#000000" points="1200,-321 1200,-365 1326,-365 1326,-321 1200,-321"/>
<text text-anchor="start" x="1249.6675" y="-346" font-family="Helvetica,sans-Serif" font-size="10.00" fill="#000000">&#45;static</text>
<text text-anchor="start" x="1235.4915" y="-334" font-family="Helvetica,sans-Serif" font-size="10.00" fill="#000000">tarifa:double</text>
<polygon fill="none" stroke="#000000" points="1200,-277 1200,-321 1326,-321 1326,-277 1200,-277"/>
<text text-anchor="start" x="1220.6295" y="-302" font-family="Helvetica,sans-Serif" font-size="10.00" fill="#000000">+getTarifa():double</text>
<text text-anchor="start" x="1209.797" y="-290" font-family="Helvetica,sans-Serif" font-size="10.00" fill="#000000">+setTarifa(double tarifa)</text>
</g>
<!-- A1&#45;&gt;A7 -->
<g id="edge13" class="edge">
<title>A1&#45;&gt;A7</title>
<path fill="none" stroke="#000000" d="M1076.0151,-409.1035C1119.9789,-392.1506 1165.0792,-374.7594 1199.9697,-361.3052"/>
<polygon fill="none" stroke="#000000" points="1074.7261,-405.8493 1066.6551,-412.7129 1077.2447,-412.3805 1074.7261,-405.8493"/>
</g>
<!-- A8 -->
<g id="node9" class="node">
<title>A8</title>
<polygon fill="none" stroke="#000000" points="1301.3398,-259 1224.6602,-259 1224.6602,-223 1301.3398,-223 1301.3398,-259"/>
<text text-anchor="middle" x="1263" y="-238" font-family="Helvetica,sans-Serif" font-size="10.00" fill="#000000">Propietario</text>
</g>
<!-- A1&#45;&gt;A8 -->
<g id="edge6" class="edge">
<title>A1&#45;&gt;A8</title>
<path fill="none" stroke="#000000" d="M1049.5077,-380.8384C1069.8534,-365.1062 1090.0284,-348.2312 1108,-331 1133.8027,-306.2604 1128.0175,-287.4647 1158,-268 1174.8614,-257.0536 1195.9298,-250.5413 1214.7599,-246.6687"/>
<polygon fill="#000000" stroke="#000000" points="1224.6583,-244.826 1215.6508,-251.0802 1219.7427,-245.7411 1214.8272,-246.6562 1214.8272,-246.6562 1214.8272,-246.6562 1219.7427,-245.7411 1214.0036,-242.2322 1224.6583,-244.826 1224.6583,-244.826"/>
<text text-anchor="middle" x="1208.3852" y="-253.453" font-family="Helvetica,sans-Serif" font-size="10.00" fill="#000000">1</text>
<text text-anchor="middle" x="1058.6057" y="-360.0275" font-family="Helvetica,sans-Serif" font-size="10.00" fill="#000000">1</text>
</g>
<!-- A2&#45;&gt;A1 -->
<g id="edge8" class="edge">
<title>A2&#45;&gt;A1</title>
<path fill="none" stroke="#000000" d="M673.0954,-443.7781C699.3287,-446.7241 727.161,-449.8496 754.2578,-452.8926"/>
<polygon fill="#000000" stroke="#000000" points="764.2033,-454.0095 753.7635,-457.3653 759.2345,-453.4514 754.2657,-452.8934 754.2657,-452.8934 754.2657,-452.8934 759.2345,-453.4514 754.7679,-448.4215 764.2033,-454.0095 764.2033,-454.0095"/>
<text text-anchor="middle" x="745.2471" y="-457.3862" font-family="Helvetica,sans-Serif" font-size="10.00" fill="#000000">1</text>
<text text-anchor="middle" x="692.0516" y="-434.4014" font-family="Helvetica,sans-Serif" font-size="10.00" fill="#000000">1</text>
</g>
<!-- A3 -->
<g id="node4" class="node">
<title>A3</title>
<polygon fill="none" stroke="#000000" points="880.5,-44 880.5,-88 950.5,-88 950.5,-44 880.5,-44"/>
<text text-anchor="start" x="891.319" y="-69" font-family="Helvetica,sans-Serif" font-size="10.00" fill="#000000">&lt;&lt;enum&gt;&gt;</text>
<text text-anchor="start" x="899.9375" y="-57" font-family="Helvetica,sans-Serif" font-size="10.00" fill="#000000">Estado</text>
<polygon fill="none" stroke="#000000" points="880.5,0 880.5,-44 950.5,-44 950.5,0 880.5,0"/>
<text text-anchor="start" x="901.0525" y="-25" font-family="Helvetica,sans-Serif" font-size="10.00" fill="#000000">LIBRE</text>
<text text-anchor="start" x="890.2235" y="-13" font-family="Helvetica,sans-Serif" font-size="10.00" fill="#000000">OCUPADO</text>
</g>
<!-- A2&#45;&gt;A3 -->
<g id="edge7" class="edge">
<title>A2&#45;&gt;A3</title>
<path fill="none" stroke="#000000" d="M570.873,-332.6667C598.5142,-257.8487 647.1574,-157.0353 723,-97 765.5594,-63.3109 828.077,-51.0056 870.2134,-46.5289"/>
<polygon fill="#000000" stroke="#000000" points="880.1979,-45.5736 870.672,-51.0057 875.2206,-46.0499 870.2433,-46.5261 870.2433,-46.5261 870.2433,-46.5261 875.2206,-46.0499 869.8147,-42.0466 880.1979,-45.5736 880.1979,-45.5736"/>
<text text-anchor="middle" x="862.9591" y="-52.7139" font-family="Helvetica,sans-Serif" font-size="10.00" fill="#000000">1</text>
<text text-anchor="middle" x="569.507" y="-309.7134" font-family="Helvetica,sans-Serif" font-size="10.00" fill="#000000">1</text>
</g>
<!-- A6 -->
<g id="node7" class="node">
<title>A6</title>
<polygon fill="none" stroke="#000000" points="1418,-511 1418,-555 1486,-555 1486,-511 1418,-511"/>
<text text-anchor="start" x="1427.819" y="-536" font-family="Helvetica,sans-Serif" font-size="10.00" fill="#000000">&lt;&lt;enum&gt;&gt;</text>
<text text-anchor="start" x="1431.164" y="-524" font-family="Helvetica,sans-Serif" font-size="10.00" fill="#000000">TipoMoto</text>
<polygon fill="none" stroke="#000000" points="1418,-467 1418,-511 1486,-511 1486,-467 1418,-467"/>
<text text-anchor="start" x="1430.6085" y="-492" font-family="Helvetica,sans-Serif" font-size="10.00" fill="#000000">CLASICA</text>
<text text-anchor="start" x="1431.7235" y="-480" font-family="Helvetica,sans-Serif" font-size="10.00" fill="#000000">HIBRIDA</text>
</g>
<!-- A5&#45;&gt;A6 -->
<g id="edge5" class="edge">
<title>A5&#45;&gt;A6</title>
<path fill="none" stroke="#000000" d="M1359.7147,-511C1376.5236,-511 1393.2392,-511 1407.7324,-511"/>
<polygon fill="#000000" stroke="#000000" points="1417.8625,-511 1407.8625,-515.5001 1412.8625,-511 1407.8625,-511.0001 1407.8625,-511.0001 1407.8625,-511.0001 1412.8625,-511 1407.8624,-506.5001 1417.8625,-511 1417.8625,-511"/>
<text text-anchor="middle" x="1399.7363" y="-516.4524" font-family="Helvetica,sans-Serif" font-size="10.00" fill="#000000">1</text>
<text text-anchor="middle" x="1377.8408" y="-499.5476" font-family="Helvetica,sans-Serif" font-size="10.00" fill="#000000">1</text>
</g>
<!-- A9 -->
<g id="node10" class="node">
<title>A9</title>
<polygon fill="none" stroke="#000000" points="1302.001,-205 1223.999,-205 1223.999,-169 1302.001,-169 1302.001,-205"/>
<text text-anchor="middle" x="1263" y="-184" font-family="Helvetica,sans-Serif" font-size="10.00" fill="#000000">Comprador</text>
</g>
<!-- A10 -->
<g id="node11" class="node">
<title>A10</title>
<polygon fill="none" stroke="#000000" points="1188,-119 1188,-151 1339,-151 1339,-119 1188,-119"/>
<text text-anchor="start" x="1232.666" y="-132" font-family="Helvetica,sans-Serif" font-size="10.00" fill="#000000">Administrador</text>
<polygon fill="none" stroke="#000000" points="1188,-75 1188,-119 1339,-119 1339,-75 1188,-75"/>
<text text-anchor="start" x="1197.524" y="-88" font-family="Helvetica,sans-Serif" font-size="10.00" fill="#000000">+cambiarTarifa(Tarifa,double)</text>
</g>
<!-- A11 -->
<g id="node12" class="node">
<title>A11</title>
<polygon fill="none" stroke="#000000" points="723.5,-278 723.5,-322 1108.5,-322 1108.5,-278 723.5,-278"/>
<text text-anchor="start" x="886.54" y="-303" font-family="Helvetica,sans-Serif" font-size="10.00" fill="#000000">&lt;&lt;abstract&gt;&gt;</text>
<text text-anchor="start" x="897.383" y="-291" font-family="Helvetica,sans-Serif" font-size="10.00" fill="#000000">Persona</text>
<polygon fill="none" stroke="#000000" points="723.5,-198 723.5,-278 1108.5,-278 1108.5,-198 723.5,-198"/>
<text text-anchor="start" x="880.442" y="-259" font-family="Helvetica,sans-Serif" font-size="10.00" fill="#000000">&#45;nombres:String</text>
<text text-anchor="start" x="880.163" y="-247" font-family="Helvetica,sans-Serif" font-size="10.00" fill="#000000">&#45;apellidos:String</text>
<text text-anchor="start" x="896.5495" y="-235" font-family="Helvetica,sans-Serif" font-size="10.00" fill="#000000">&#45;edad:int</text>
<text text-anchor="start" x="885.167" y="-223" font-family="Helvetica,sans-Serif" font-size="10.00" fill="#000000">&#45;celular:String</text>
<text text-anchor="start" x="885.7215" y="-211" font-family="Helvetica,sans-Serif" font-size="10.00" fill="#000000">&#45;correo:String</text>
<polygon fill="none" stroke="#000000" points="723.5,-106 723.5,-198 1108.5,-198 1108.5,-106 723.5,-106"/>
<text text-anchor="start" x="733.334" y="-179" font-family="Helvetica,sans-Serif" font-size="10.00" fill="#000000">+Constructor(nombres:String,apellidos:String,edad:int,celular:String,correo: String)</text>
<text text-anchor="start" x="868.0795" y="-167" font-family="Helvetica,sans-Serif" font-size="10.00" fill="#000000">+getNombres():String</text>
<text text-anchor="start" x="868.0755" y="-155" font-family="Helvetica,sans-Serif" font-size="10.00" fill="#000000">+getApellidos():String</text>
<text text-anchor="start" x="884.462" y="-143" font-family="Helvetica,sans-Serif" font-size="10.00" fill="#000000">+getEdad():int</text>
<text text-anchor="start" x="872.525" y="-131" font-family="Helvetica,sans-Serif" font-size="10.00" fill="#000000">+getCelular():String</text>
<text text-anchor="start" x="873.0795" y="-119" font-family="Helvetica,sans-Serif" font-size="10.00" fill="#000000">+getCorreo():String</text>
</g>
<!-- A11&#45;&gt;A8 -->
<g id="edge9" class="edge">
<title>A11&#45;&gt;A8</title>
<path fill="none" stroke="#000000" d="M1118.18,-229.7478C1158.9676,-232.9169 1197.5667,-235.916 1224.6429,-238.0197"/>
<polygon fill="none" stroke="#000000" points="1118.2926,-226.2461 1108.0514,-228.9608 1117.7502,-233.225 1118.2926,-226.2461"/>
</g>
<!-- A11&#45;&gt;A9 -->
<g id="edge10" class="edge">
<title>A11&#45;&gt;A9</title>
<path fill="none" stroke="#000000" d="M1118.0734,-198.2605C1158.4339,-195.1246 1196.6599,-192.1545 1223.7096,-190.0528"/>
<polygon fill="none" stroke="#000000" points="1117.7502,-194.775 1108.0514,-199.0392 1118.2926,-201.7539 1117.7502,-194.775"/>
</g>
<!-- A11&#45;&gt;A10 -->
<g id="edge11" class="edge">
<title>A11&#45;&gt;A10</title>
<path fill="none" stroke="#000000" d="M1117.8739,-155.1805C1142.4468,-148.0385 1166.2342,-141.1247 1187.1967,-135.032"/>
<polygon fill="none" stroke="#000000" points="1116.6772,-151.8834 1108.0514,-158.0354 1118.6309,-158.6053 1116.6772,-151.8834"/>
</g>
</g>
</svg>
